<svg width="13" height="22" viewBox="0 0 13 22" fill="none" xmlns="http://www.w3.org/2000/svg">
<path d="M3.8597 5.26825C5.28879 3.3453 5.79729 0.954856 5.87291 0C8.99197 3.32971 7.94755 5.99621 7.03546 6.91325C7.89178 6.52186 8.43195 5.46442 8.59499 4.98463C10.2793 6.93027 9.50235 8.64334 8.86436 9.09713C4.11205 11.5533 4.9939 14.181 5.99341 15.117C8.7793 17.2016 11.1611 14.5852 10.1049 13.3585C9.29053 12.4128 8.08223 13.3987 7.60256 13.9896C7.21977 13.706 7.24103 13.0891 7.33319 12.7842C7.40691 12.5403 7.42062 12.347 7.43243 12.2382C7.50049 11.4895 8.24764 10.9194 8.64461 10.7776C10.2779 10.2557 10.7712 9.16804 10.7712 8.31008C12.3024 9.43038 11.9692 10.9761 11.551 11.6355C15.3719 16.4358 10.8563 21.0092 7.00711 21.0092C3.51235 21.0092 0.620122 18.3432 0.138093 15.4077C-0.573349 11.0751 1.58417 8.60079 3.8597 5.26825Z" fill="#04A4DF"/>
</svg>
